<?xml version="1.0" standalone="no"?>
<!DOCTYPE svg PUBLIC "-//W3C//DTD SVG 20010904//EN"
 "http://www.w3.org/TR/2001/REC-SVG-20010904/DTD/svg10.dtd">
<svg version="1.0" xmlns="http://www.w3.org/2000/svg"
 width="2340.000000pt" height="730.000000pt" viewBox="0 0 2340.000000 730.000000"
 preserveAspectRatio="xMidYMid meet">

<g transform="translate(0.000000,730.000000) scale(0.100000,-0.100000)"
fill="#000000" stroke="none">
<path d="M0 3650 l0 -3650 11700 0 11700 0 0 3650 0 3650 -11700 0 -11700 0 0
-3650z m5230 3185 c530 -57 1065 -263 1511 -582 703 -502 1188 -1301 1303
-2143 9 -63 18 -130 20 -148 9 -66 76 -62 -842 -56 -849 5 -938 7 -949 18 -4
3 8 21 25 39 18 19 45 58 61 88 l28 54 274 5 c151 3 275 7 277 8 2 1 2 37 0
80 l-3 77 -33 3 c-18 2 -35 9 -37 15 -3 7 -6 296 -7 642 l-3 630 -24 45 c-45
87 -91 119 -203 144 -26 6 -28 10 -28 57 0 50 -12 87 -34 102 -13 9 -2379 8
-2393 -1 -11 -8 -63 -115 -63 -131 0 -23 -45 -31 -167 -31 -70 0 -145 -5 -167
-11 -49 -14 -116 -82 -137 -139 -9 -25 -31 -83 -49 -130 -17 -47 -62 -173 -99
-281 -73 -211 -98 -268 -121 -281 -8 -4 -84 -35 -168 -68 -172 -67 -191 -79
-224 -135 -21 -37 -23 -55 -28 -220 l-5 -180 -37 -24 c-38 -24 -38 -25 -38
-93 l0 -68 234 0 c129 0 241 -3 249 -6 20 -7 70 -110 62 -125 -7 -11 -1149 -4
-1550 10 l-180 6 3 55 c7 125 66 391 132 590 93 280 220 537 391 790 266 394
634 741 1034 973 108 63 300 159 405 202 262 107 628 201 880 224 159 14 552
12 700 -4z m4340 -1525 l0 -620 35 0 c27 0 35 4 35 18 0 29 101 1175 106 1200
4 22 6 22 189 22 102 0 185 -3 185 -6 0 -21 -172 -1094 -180 -1124 -22 -84
-73 -116 -195 -127 -104 -8 -102 -30 3 -35 138 -7 178 -45 206 -198 20 -111
176 -1104 176 -1124 0 -12 -29 -15 -184 -16 -102 0 -187 3 -189 7 -3 4 -31
298 -62 653 -32 355 -58 646 -59 647 0 0 -14 3 -31 5 l-30 3 -5 -655 -5 -655
-175 0 -175 0 -3 1313 -2 1312 180 0 180 0 0 -620z m1954 598 c13 -61 257
-2588 251 -2598 -4 -6 -71 -10 -185 -10 l-178 0 -6 63 c-3 34 -8 121 -11 192
-3 72 -8 163 -11 203 l-6 73 -97 -3 -96 -3 -13 -255 c-9 -175 -17 -257 -25
-262 -15 -10 -338 -10 -354 0 -8 5 22 339 118 1302 70 712 129 1301 129 1308
0 9 55 12 240 12 l240 0 4 -22z m1326 -1108 l0 -1130 120 0 120 0 0 -180 0
-179 -32 -6 c-18 -3 -152 -5 -298 -3 l-265 3 -3 1313 -2 1312 180 0 180 0 0
-1130z m1154 1108 c3 -13 24 -331 48 -706 24 -376 46 -689 50 -695 4 -6 9 -9
11 -7 3 3 23 295 46 650 23 355 44 675 47 713 l7 67 183 0 184 0 -5 -22 c-3
-13 -70 -413 -150 -889 l-145 -866 0 -426 0 -427 -175 0 -175 0 0 430 0 430
-145 862 c-80 475 -147 873 -150 886 l-5 22 185 0 c183 0 185 0 189 -22z
m1840 -10 c6 -34 256 -2564 256 -2585 0 -8 -51 -12 -184 -13 l-184 -1 -6 53
c-3 29 -8 112 -11 183 -3 72 -8 167 -11 213 l-6 82 -97 0 -97 0 -13 -257 c-7
-141 -14 -260 -17 -265 -7 -11 -361 -10 -368 0 -3 5 53 595 124 1311 72 717
130 1305 130 1307 0 2 108 4 240 4 l239 0 5 -32z m1288 10 c2 -13 51 -382 109
-820 75 -576 107 -798 117 -798 9 0 12 171 12 820 l0 820 170 0 170 0 0 -1309
c0 -1296 0 -1310 -20 -1316 -34 -11 -302 -3 -305 9 -2 6 -51 400 -110 876 -58
476 -109 872 -113 880 -4 8 -9 -385 -12 -875 l-5 -890 -165 0 -165 0 -3 1313
-2 1312 159 0 c157 0 159 0 163 -22z m1948 -158 l0 -180 -125 0 -125 0 0 -370
0 -370 110 0 110 0 0 -185 0 -185 -110 0 -110 0 0 -395 0 -395 125 0 125 0 0
-185 0 -185 -300 0 -300 0 0 1315 0 1315 300 0 300 0 0 -180z m1340 0 l0 -180
-125 0 -125 0 0 -370 0 -370 110 0 110 0 0 -185 0 -185 -110 0 -110 0 0 -395
0 -395 125 0 125 0 0 -185 0 -185 -300 0 -300 0 0 1315 0 1315 300 0 300 0 0
-180z m1459 23 l0 -158 -203 -970 -202 -970 198 -3 198 -2 -2 -183 -3 -182
-375 0 -375 0 -3 135 -2 135 205 994 c113 547 205 996 205 998 0 1 -88 3 -195
3 l-195 0 0 180 0 180 375 0 375 0 -1 -157z m-15189 -112 c15 -11 25 -28 25
-42 l0 -24 -1475 -6 c-1065 -4 -1477 -3 -1482 5 -14 20 -8 37 20 65 l28 28
1429 -4 c1348 -4 1431 -6 1455 -22z m-1862 -108 c12 -3 22 -9 22 -13 0 -4 -18
-47 -40 -94 -33 -70 -40 -96 -40 -146 0 -80 19 -116 75 -140 l44 -19 3 -98 3
-98 30 -6 c17 -4 373 -7 792 -8 600 -1 763 2 770 12 4 6 8 48 9 92 0 44 2 87
2 96 1 9 19 21 42 28 54 16 70 49 70 146 0 66 -4 84 -35 145 -49 97 -48 100
30 100 71 0 117 -17 135 -49 6 -12 10 -139 10 -340 0 -303 -1 -321 -19 -330
-12 -7 -381 -11 -1057 -11 -978 -1 -1039 0 -1051 16 -10 14 -13 96 -13 349 0
341 1 354 40 368 18 7 146 7 178 0z m392 -25 c0 -34 -27 -127 -40 -144 -19
-21 -188 -20 -197 2 -3 9 10 49 31 90 l36 74 85 0 c82 0 85 -1 85 -22z m362
-48 c11 -110 11 -110 -93 -110 -74 0 -90 3 -97 18 -9 17 1 133 14 153 3 6 42
8 87 7 l82 -3 7 -65z m397 52 c5 -10 11 -49 13 -87 l3 -70 -95 0 -95 0 -3 74
c-2 41 -1 80 2 88 4 9 28 13 85 13 67 0 82 -3 90 -18z m386 -52 c54 -108 53
-110 -59 -110 -63 0 -97 4 -104 13 -12 15 -43 148 -36 159 3 4 41 8 84 8 l80
0 35 -70z m-2508 -35 c47 -11 54 -48 53 -274 -1 -148 -5 -212 -13 -219 -14
-11 -356 -26 -380 -16 -9 3 -17 15 -17 25 0 10 32 115 70 232 39 117 70 217
70 222 0 5 6 16 14 24 11 13 32 15 98 13 46 -1 93 -5 105 -7z m621 -21 c22
-15 22 -19 22 -228 0 -167 -3 -216 -14 -231 -13 -18 -30 -20 -195 -23 l-180
-4 -25 26 -26 25 0 206 c0 266 -19 245 218 245 144 0 182 -3 200 -16z m932
-214 c0 -14 55 -40 84 -40 13 0 39 12 56 26 l31 27 29 -34 c25 -30 33 -34 78
-34 44 0 56 5 84 32 l33 32 28 -25 c37 -32 86 -32 125 1 37 31 40 31 63 1 41
-52 106 -54 167 -5 23 17 27 18 34 4 5 -8 23 -22 40 -31 39 -20 83 -12 119 22
24 23 27 23 40 8 17 -20 23 -147 9 -175 -9 -15 -21 -19 -70 -19 -71 0 -90 6
-90 31 0 10 -8 23 -18 28 -22 12 -1051 15 -1069 3 -6 -4 -16 -20 -22 -35 l-11
-28 -97 3 -98 3 -3 85 c-2 62 1 91 12 105 14 19 15 19 39 -6 44 -48 99 -47
153 3 21 19 22 19 49 -6 44 -41 106 -39 150 5 29 29 55 38 55 19z m-937 -323
c10 -6 20 -30 24 -51 8 -49 -12 -66 -74 -66 -30 0 -43 -4 -43 -14 0 -18 22
-26 70 -26 25 0 40 -5 44 -16 10 -27 7 -304 -4 -325 -10 -18 -23 -19 -190 -19
-157 0 -210 -7 -183 -23 13 -8 1385 -20 1454 -13 l64 7 34 65 c37 72 110 144
187 186 175 95 383 69 530 -64 64 -59 99 -115 134 -212 l26 -71 140 -5 c142
-5 174 -14 174 -46 0 -11 -34 -14 -185 -14 -208 0 -197 -4 -208 82 -14 108
-107 228 -215 280 -56 26 -82 33 -155 36 -77 4 -97 1 -161 -22 -127 -47 -232
-168 -251 -291 -3 -22 -8 -50 -11 -62 l-4 -23 -795 0 -795 0 -5 28 c-20 92
-29 122 -53 165 -39 72 -127 149 -203 178 -116 44 -251 30 -359 -37 -88 -54
-165 -175 -177 -276 -3 -27 -10 -51 -16 -55 -15 -9 -268 -13 -307 -5 -44 10
-50 35 -14 59 21 14 51 18 138 20 61 1 114 2 119 3 16 0 6 29 -12 35 -43 13
-38 85 5 85 29 0 64 16 64 30 0 6 -15 10 -34 10 -51 0 -76 31 -60 74 5 13 22
16 84 16 61 0 82 4 96 18 17 16 13 17 -72 20 -49 2 -93 7 -98 12 -16 16 4 59
34 75 24 12 76 15 288 15 233 0 265 -2 317 -20 75 -26 129 -58 185 -110 l45
-42 5 111 c7 134 5 132 175 237 111 69 124 74 175 74 31 0 64 -6 73 -13z
m-1083 -73 c0 -35 -24 -53 -120 -95 -125 -53 -150 -75 -151 -138 -1 -25 -4
-100 -8 -166 l-6 -120 -35 0 -35 0 -3 163 c-3 218 3 229 178 306 47 20 96 43
110 51 34 20 70 19 70 -1z m2351 -114 c11 -6 19 -21 19 -35 0 -14 -8 -29 -19
-35 -23 -12 -1089 -14 -1107 -2 -19 13 -23 39 -8 61 15 21 17 21 555 21 353 0
547 -4 560 -10z m980 0 c11 -6 19 -21 19 -35 0 -14 -8 -29 -19 -35 -28 -15
-314 -13 -329 2 -18 18 -15 55 6 67 23 14 298 14 323 1z m-1317 -156 c9 -8 16
-22 16 -29 0 -7 -7 -21 -16 -29 -13 -14 -62 -16 -387 -16 -205 0 -377 4 -383
8 -21 13 -25 49 -9 66 15 14 60 16 390 16 326 0 376 -2 389 -16z m-1649 -173
c88 -39 140 -142 116 -229 -16 -61 -43 -97 -99 -129 -62 -37 -132 -36 -196 1
-55 32 -83 69 -97 132 -28 121 71 244 196 244 22 0 58 -9 80 -19z m2441 -27
c50 -40 75 -91 77 -157 1 -71 -26 -123 -87 -164 -41 -28 -57 -33 -108 -33 -67
0 -99 14 -145 62 -39 41 -53 76 -53 134 0 77 31 131 100 173 29 18 47 22 107
19 62 -3 76 -7 109 -34z m-1089 -234 l662 0 21 -47 c11 -27 35 -65 51 -86 17
-21 28 -41 24 -45 -7 -7 -78 -6 -615 8 -201 6 -576 15 -835 20 -273 6 -474 15
-479 20 -13 13 41 127 63 134 9 3 113 3 231 1 118 -3 513 -5 877 -5z m3243
-146 c88 -12 132 -24 188 -50 l72 -35 0 -889 0 -890 -3786 0 c-2921 0 -3785
-3 -3782 -12 2 -6 15 -20 29 -29 22 -16 67 -19 462 -25 l437 -7 21 -33 c11
-19 18 -38 14 -44 -8 -13 -546 -13 -671 0 -143 15 -250 47 -296 88 -17 14 -18
70 -18 906 l0 892 3784 -4 c2798 -2 3786 0 3791 8 4 6 -3 22 -16 36 -22 24
-25 24 -201 24 l-178 0 -11 27 c-22 58 -10 61 161 37z m2150 -1085 c85 -13
196 -68 254 -123 107 -105 158 -236 157 -411 0 -122 -15 -194 -61 -293 -37
-80 -132 -179 -210 -221 -198 -106 -459 -66 -606 92 -101 108 -144 226 -144
397 0 166 48 302 140 404 123 133 281 186 470 155z m1140 0 c85 -13 196 -68
254 -123 107 -105 158 -236 157 -411 0 -122 -15 -194 -61 -293 -37 -80 -132
-179 -210 -221 -198 -106 -459 -66 -606 92 -101 108 -144 226 -144 397 0 166
48 302 140 404 123 133 281 186 470 155z m2480 0 c85 -13 196 -68 254 -123
107 -105 158 -236 157 -411 0 -122 -15 -194 -61 -293 -37 -80 -132 -179 -210
-221 -198 -106 -459 -66 -606 92 -101 108 -144 226 -144 397 0 166 48 302 140
404 123 133 281 186 470 155z m7627 -5 c48 -10 94 -13 125 -9 45 6 50 5 81
-27 19 -18 44 -59 55 -91 45 -118 20 -184 -65 -174 -38 4 -54 14 -111 69 -76
74 -119 92 -199 86 -63 -5 -100 -29 -126 -81 -15 -30 -16 -42 -7 -77 15 -55
60 -83 205 -126 240 -71 324 -143 345 -293 27 -194 -98 -343 -315 -374 -61 -9
-86 -8 -161 9 -49 10 -114 17 -145 16 -53 -4 -57 -2 -87 32 -34 38 -72 146
-72 202 0 48 29 74 82 74 39 0 47 -5 111 -71 38 -39 88 -79 110 -90 82 -37
211 -15 251 42 10 14 16 43 16 75 0 84 -46 118 -222 165 -189 51 -286 121
-319 230 -15 53 -13 152 6 208 32 98 141 188 255 210 68 13 104 12 187 -5z
m-11982 -37 c60 -69 71 -164 23 -200 l-27 -20 -96 48 c-94 47 -99 49 -204 53
-101 4 -110 3 -130 -17 -19 -19 -21 -32 -21 -140 0 -95 3 -123 16 -135 21 -22
154 -21 246 1 76 18 93 14 116 -28 20 -37 11 -135 -16 -161 -21 -21 -22 -21
-90 -5 -39 10 -110 17 -161 17 -82 0 -91 -2 -102 -22 -18 -33 -6 -261 16 -319
35 -90 -2 -124 -135 -124 -57 0 -83 5 -104 19 -29 18 -29 18 -20 90 12 92 12
780 0 872 -8 68 -8 71 16 90 23 18 44 19 332 19 l308 0 33 -38z m3000 23 c253
-65 388 -263 371 -540 -3 -52 -12 -120 -20 -150 -54 -196 -198 -337 -385 -375
-45 -9 -133 -13 -273 -11 -190 1 -208 3 -228 21 -21 19 -22 25 -14 90 12 91
12 779 0 871 -8 68 -8 71 17 90 23 19 40 20 253 19 152 -1 246 -6 279 -15z
m2074 7 c14 -6 133 -156 265 -332 176 -233 246 -320 261 -320 19 0 20 7 20
235 0 203 -3 243 -19 292 -24 73 -16 105 29 124 68 28 159 7 171 -40 3 -14 1
-48 -5 -76 -7 -32 -11 -190 -11 -420 0 -230 4 -388 11 -420 6 -28 8 -62 5 -76
-11 -43 -108 -70 -157 -44 -10 6 -122 147 -248 313 -126 166 -238 310 -249
321 -12 10 -28 16 -37 13 -13 -6 -15 -38 -15 -231 0 -193 3 -233 19 -286 31
-98 7 -134 -88 -135 -39 0 -66 6 -85 19 l-29 18 9 72 c12 92 12 779 0 871 -7
62 -6 72 10 86 33 29 103 37 143 16z m1386 -11 c27 -17 27 -20 19 -75 -13 -93
-6 -135 64 -400 64 -242 84 -292 108 -268 14 14 144 463 144 499 0 23 -13 62
-35 104 -62 119 -44 155 83 162 42 2 96 -1 120 -7 57 -16 68 -41 54 -118 -14
-71 -13 -78 80 -378 77 -251 82 -265 103 -265 18 0 35 50 100 300 67 256 71
284 56 347 -21 86 13 123 113 123 53 0 88 -19 100 -52 8 -22 3 -40 -22 -95
-28 -61 -64 -187 -213 -737 -52 -192 -61 -205 -145 -213 -77 -7 -130 9 -148
45 -7 15 -41 120 -76 233 -34 114 -66 212 -70 219 -20 32 -40 -9 -104 -221
-84 -274 -84 -274 -194 -274 -128 0 -111 -31 -242 452 -62 230 -126 447 -141
482 -59 132 -33 163 132 158 63 -2 94 -8 114 -21z m1493 -3 c32 -24 33 -57 8
-143 -18 -62 -22 -221 -6 -251 10 -18 23 -19 210 -19 187 0 200 1 210 19 16
30 12 189 -6 251 -25 86 -23 119 7 142 33 25 129 34 187 19 60 -17 69 -40 54
-139 -8 -47 -12 -203 -12 -402 0 -199 4 -355 12 -402 15 -99 6 -122 -54 -139
-58 -15 -154 -6 -187 19 -33 24 -37 53 -15 105 12 31 18 81 22 188 4 127 2
147 -13 162 -14 15 -41 17 -205 17 -164 0 -191 -2 -205 -17 -15 -15 -17 -35
-13 -162 4 -107 10 -157 22 -188 22 -52 18 -81 -15 -105 -33 -25 -129 -34
-187 -19 -60 17 -69 40 -54 139 16 104 16 699 0 810 -14 95 -9 110 43 130 50
18 164 9 197 -15z m1556 -15 c53 -61 71 -147 39 -187 -27 -33 -51 -29 -146 19
-83 42 -91 44 -196 48 -101 4 -110 3 -130 -17 -19 -19 -21 -32 -21 -130 0 -86
3 -113 16 -125 21 -22 154 -21 246 1 76 18 93 14 116 -28 20 -37 11 -135 -16
-161 -21 -21 -22 -21 -97 -5 -41 10 -109 17 -150 17 -110 0 -115 -7 -115 -159
0 -160 3 -165 133 -169 113 -5 184 13 267 64 31 19 66 34 79 34 63 0 79 -75
36 -167 -42 -90 -35 -89 -400 -87 -379 2 -362 -3 -349 109 12 91 12 779 0 871
-8 68 -8 71 16 90 23 18 44 19 332 19 l308 0 32 -37z m920 0 c53 -61 71 -147
39 -187 -27 -33 -51 -29 -146 19 -83 42 -91 44 -196 48 -101 4 -110 3 -130
-17 -19 -19 -21 -32 -21 -130 0 -86 3 -113 16 -125 21 -22 154 -21 246 1 76
18 93 14 116 -28 20 -37 11 -135 -16 -161 -21 -21 -22 -21 -97 -5 -41 10 -109
17 -150 17 -110 0 -115 -7 -115 -159 0 -160 3 -165 133 -169 113 -5 184 13
267 64 31 19 66 34 79 34 63 0 79 -75 36 -167 -42 -90 -35 -89 -400 -87 -379
2 -362 -3 -349 109 12 91 12 779 0 871 -8 68 -8 71 16 90 23 18 44 19 332 19
l308 0 32 -37z m476 14 c32 -25 36 -51 13 -110 -16 -42 -18 -82 -18 -399 l0
-352 23 -23 c21 -21 32 -23 125 -23 92 1 107 4 157 29 30 16 67 37 82 47 32
23 81 25 102 3 40 -40 2 -177 -60 -219 -29 -20 -44 -21 -333 -19 -278 2 -304
3 -322 20 -18 16 -20 26 -14 69 14 111 17 748 4 849 -14 111 -10 124 42 144
48 17 166 8 199 -16z m-17875 -837 c275 -3 637 -10 805 -15 428 -14 3679 -57
3865 -52 73 3 105 -4 105 -22 0 -7 -37 -64 -81 -127 -536 -751 -1368 -1238
-2278 -1334 -337 -36 -722 -13 -1046 60 -194 45 -251 61 -420 125 -509 191
-993 534 -1340 953 -91 110 -236 310 -270 374 -25 46 -12 54 85 48 41 -2 300
-7 575 -10z m3850 -1185 c-3 -5 -12 -10 -18 -10 -7 0 -6 4 3 10 19 12 23 12
15 0z m-35 -18 c0 -5 -11 -14 -25 -20 -39 -18 -44 -14 -10 7 36 23 35 23 35
13z m-70 -46 c0 -2 -7 -6 -15 -10 -8 -3 -15 -1 -15 4 0 6 7 10 15 10 8 0 15
-2 15 -4z m-45 -26 c-3 -5 -12 -10 -18 -10 -7 0 -6 4 3 10 19 12 23 12 15 0z
m-70 -36 c-21 -16 -124 -67 -210 -103 -27 -12 -58 -26 -68 -32 -11 -6 -21 -8
-24 -5 -3 2 30 21 73 41 44 19 115 53 159 75 89 43 99 46 70 24z m-318 -150
c-3 -3 -12 -4 -19 -1 -8 3 -5 6 6 6 11 1 17 -2 13 -5z m-80 -30 c-3 -3 -12 -4
-19 -1 -8 3 -5 6 6 6 11 1 17 -2 13 -5z m-180 -60 c-3 -3 -12 -4 -19 -1 -8 3
-5 6 6 6 11 1 17 -2 13 -5z m-230 -60 c-3 -3 -12 -4 -19 -1 -8 3 -5 6 6 6 11
1 17 -2 13 -5z m-227 -38 c0 -2 -7 -6 -15 -10 -8 -3 -15 -1 -15 4 0 6 7 10 15
10 8 0 15 -2 15 -4z"/>
<path d="M11270 5449 c0 -47 -68 -1371 -75 -1456 l-6 -73 91 0 90 0 -1 73 c0
39 -17 389 -37 776 -28 528 -40 705 -49 709 -9 2 -13 -7 -13 -29z"/>
<path d="M15590 5455 c0 -37 -68 -1357 -75 -1452 l-6 -83 90 0 91 0 0 33 c0
60 -71 1462 -76 1495 -6 38 -24 43 -24 7z"/>
<path d="M4697 5124 c-13 -13 -7 -24 14 -24 11 0 19 5 17 12 -5 14 -22 21 -31
12z"/>
<path d="M6642 5113 c2 -10 10 -18 18 -18 8 0 16 8 18 18 2 12 -3 17 -18 17
-15 0 -20 -5 -18 -17z"/>
<path d="M4697 5034 c-14 -15 -6 -34 14 -34 14 0 19 5 17 17 -3 18 -20 27 -31
17z"/>
<path d="M4787 5034 c-14 -15 -6 -34 14 -34 14 0 19 5 17 17 -3 18 -20 27 -31
17z"/>
<path d="M6547 5026 c-9 -22 18 -40 33 -22 6 9 9 20 5 26 -9 15 -32 12 -38 -4z"/>
<path d="M6643 5024 c-8 -21 13 -42 28 -27 13 13 5 43 -11 43 -6 0 -13 -7 -17
-16z"/>
<path d="M4697 4934 c-14 -15 -6 -34 14 -34 14 0 19 5 17 17 -3 18 -20 27 -31
17z"/>
<path d="M4787 4934 c-14 -15 -6 -34 14 -34 14 0 19 5 17 17 -3 18 -20 27 -31
17z"/>
<path d="M6545 4930 c-4 -7 -3 -16 3 -22 14 -14 45 -2 40 15 -6 16 -34 21 -43
7z"/>
<path d="M6640 4921 c0 -15 6 -21 21 -21 14 0 19 5 17 17 -5 26 -38 29 -38 4z"/>
<path d="M4145 4270 c-3 -5 -3 -14 0 -20 4 -7 260 -10 735 -10 615 0 729 2
733 14 3 8 3 17 0 20 -11 11 -1461 7 -1468 -4z"/>
<path d="M3602 4310 c-93 -57 -96 -178 -7 -246 31 -23 42 -26 92 -22 50 4 60
9 95 46 33 36 38 47 38 89 0 86 -64 153 -145 153 -22 0 -54 -9 -73 -20z m115
-82 c40 -38 23 -93 -34 -104 -25 -5 -34 -1 -52 21 -27 35 -27 53 1 82 27 29
55 29 85 1z"/>
<path d="M6045 4330 c-75 -17 -120 -82 -113 -159 8 -83 61 -131 145 -131 65 0
109 28 135 86 49 112 -49 232 -167 204z m70 -105 c29 -28 31 -42 9 -73 -17
-25 -71 -31 -92 -10 -21 21 -15 75 10 92 31 22 45 20 73 -9z"/>
<path d="M1267 3368 c-4 -46 -7 -194 -7 -330 l0 -248 28 0 c61 0 80 46 81 198
1 105 11 100 87 -47 55 -105 91 -146 137 -155 50 -10 53 6 15 76 -20 35 -59
107 -88 162 -59 110 -59 103 4 200 89 138 126 201 126 214 0 20 -66 9 -100
-16 -14 -11 -54 -65 -90 -122 -36 -57 -70 -104 -75 -104 -6 -1 -12 46 -15 112
-5 124 -14 142 -70 142 -27 0 -27 -1 -33 -82z"/>
<path d="M1873 3420 c-21 -19 -43 -96 -43 -149 0 -15 -11 -118 -25 -227 -32
-257 -32 -264 1 -264 36 0 84 50 84 89 0 16 4 41 10 56 9 24 13 26 67 23 l58
-3 11 -62 c12 -68 25 -90 63 -104 51 -20 52 -9 26 298 -13 154 -27 293 -31
307 -10 43 -40 56 -124 56 -62 0 -80 -4 -97 -20z m122 -102 c2 -13 9 -72 14
-133 11 -120 6 -135 -38 -135 -54 0 -55 6 -42 142 7 67 17 129 23 136 16 19
37 14 43 -10z"/>
<path d="M2325 3429 c-2 -8 -6 -158 -7 -334 l-3 -320 153 -3 152 -3 0 26 c0
50 -41 71 -150 77 l-45 3 -1 258 c-1 239 -3 260 -20 277 -26 25 -72 36 -79 19z"/>
<path d="M2680 3398 c1 -18 9 -103 19 -188 l19 -154 36 -31 36 -30 0 -93 c0
-85 2 -95 25 -117 13 -14 32 -25 43 -25 35 0 42 20 42 132 l0 107 29 15 c37
20 45 44 70 206 12 74 23 147 26 161 7 46 -15 54 -72 27 -29 -14 -32 -23 -57
-168 -21 -122 -22 -125 -48 -128 -32 -4 -32 -4 -48 148 -7 57 -16 112 -21 122
-13 25 -50 48 -76 48 -19 0 -23 -5 -23 -32z"/>
<path d="M3245 3410 c-47 -18 -50 -33 -95 -432 -26 -229 -26 -218 9 -218 48 0
72 29 85 101 l12 64 59 0 59 0 11 -69 c12 -71 26 -91 73 -103 40 -10 43 5 32
133 -6 65 -17 198 -25 293 -16 186 -25 214 -71 231 -30 12 -121 12 -149 0z
m115 -234 c6 -65 9 -124 6 -132 -8 -20 -85 -19 -92 1 -11 27 18 246 34 262 28
27 41 -5 52 -131z"/>
<path d="M3677 3404 c-3 -5 -8 -154 -12 -331 l-8 -323 35 0 c62 0 73 23 76
164 2 66 5 127 8 135 9 28 30 -11 70 -129 22 -66 50 -127 64 -143 29 -32 94
-48 103 -25 10 28 12 637 1 648 -14 14 -71 -6 -84 -30 -6 -10 -10 -70 -11
-132 -1 -188 -13 -189 -75 -10 -45 130 -73 170 -125 179 -20 3 -39 1 -42 -3z"/>
<path d="M4207 3249 c-12 -271 -9 -506 7 -512 7 -3 76 -5 152 -4 132 2 139 3
142 23 2 11 -7 32 -18 47 -19 24 -28 27 -88 27 -37 0 -73 4 -80 8 -9 6 -12 33
-10 98 l3 89 59 5 c62 6 96 31 96 71 0 21 -20 28 -100 31 l-55 3 -3 60 c-5
102 -3 105 82 105 87 0 129 23 124 69 l-3 26 -151 3 -151 3 -6 -152z"/>
<path d="M4677 3278 c-4 -62 -7 -210 -7 -329 l0 -216 83 -6 c144 -12 217 -9
223 8 8 20 -14 72 -33 80 -9 3 -49 8 -90 12 l-74 6 3 91 3 91 55 5 c30 3 60 9
67 13 15 10 32 62 24 75 -4 6 -38 12 -76 14 l-70 3 0 80 0 80 84 5 c72 5 86 9
103 30 10 13 18 33 16 44 -3 20 -10 21 -154 24 l-151 3 -6 -113z"/>
<path d="M5128 3385 c-15 -16 -8 -52 15 -73 19 -18 35 -22 93 -22 84 0 114 -7
114 -28 0 -8 -54 -109 -120 -225 -112 -196 -120 -213 -120 -264 l0 -53 175 0
175 0 0 24 c0 13 -8 34 -19 47 -16 20 -29 23 -115 27 -71 3 -96 8 -96 18 0 7
54 108 120 225 115 205 148 285 124 309 -12 11 -337 25 -346 15z"/>
<path d="M5967 3303 c-4 -38 -7 -186 -7 -330 l0 -263 30 0 c61 0 75 39 83 225
l2 60 56 5 c62 6 85 19 91 55 8 37 -3 44 -77 47 l-70 3 0 80 0 80 83 5 c73 4
86 8 103 29 11 13 19 34 17 45 -3 20 -10 21 -154 24 l-151 3 -6 -68z"/>
<path d="M6443 3336 c-18 -23 -20 -47 -26 -295 -4 -163 -3 -280 3 -295 14 -37
36 -44 161 -52 126 -7 164 1 178 38 4 13 11 147 15 299 9 350 23 323 -172 327
-139 3 -140 3 -159 -22z m221 -300 c-1 -203 -2 -220 -20 -233 -19 -14 -91 -12
-116 3 -11 7 -3 427 8 446 3 5 33 8 67 6 l62 -3 -1 -219z"/>
<path d="M6978 3333 c-8 -10 -18 -29 -21 -43 -12 -49 -9 -547 2 -569 15 -28
34 -31 178 -34 178 -3 165 -28 171 326 l5 285 -26 26 c-25 25 -29 26 -160 26
-115 0 -136 -2 -149 -17z m217 -311 c0 -187 -2 -224 -15 -233 -18 -11 -112 -1
-122 14 -7 11 0 411 8 435 3 9 22 12 66 10 l63 -3 0 -223z"/>
<path d="M7503 3342 c-8 -5 -14 -111 -19 -335 l-7 -327 99 -2 c204 -5 211 -5
237 20 25 23 25 24 32 295 7 281 4 317 -32 335 -22 11 -294 23 -310 14z m235
-247 c1 -77 -1 -178 -5 -225 l-8 -85 -67 -3 -68 -3 0 178 c0 98 3 202 7 231
l6 53 66 -3 66 -3 3 -140z"/>
<path d="M8084 3334 c-49 -11 -58 -36 -62 -174 l-4 -129 28 -29 c26 -25 39
-30 114 -36 47 -4 88 -10 93 -15 4 -4 7 -46 5 -92 l-3 -84 -65 0 -65 0 -3 42
c-3 48 -40 86 -76 81 -19 -3 -21 -11 -24 -95 -4 -127 2 -132 141 -135 148 -2
159 -1 185 28 20 23 22 34 22 158 0 172 -1 174 -125 188 -49 5 -95 14 -102 20
-8 7 -13 37 -13 84 0 61 3 75 19 83 19 10 120 4 122 -8 0 -3 2 -24 3 -45 4
-47 36 -79 75 -74 25 3 26 5 29 90 2 78 1 89 -20 112 -22 25 -29 26 -138 30
-63 3 -125 2 -136 0z"/>
<path d="M10315 2711 c-125 -57 -194 -224 -182 -440 6 -114 16 -148 59 -221
46 -76 108 -113 197 -118 83 -4 139 23 193 94 65 85 83 156 83 324 -1 129 -3
152 -24 204 -57 143 -203 214 -326 157z"/>
<path d="M11455 2711 c-125 -57 -194 -224 -182 -440 6 -114 16 -148 59 -221
46 -76 108 -113 197 -118 83 -4 139 23 193 94 65 85 83 156 83 324 -1 129 -3
152 -24 204 -57 143 -203 214 -326 157z"/>
<path d="M13935 2711 c-125 -57 -194 -224 -182 -440 6 -114 16 -148 59 -221
46 -76 108 -113 197 -118 83 -4 139 23 193 94 65 85 83 156 83 324 -1 129 -3
152 -24 204 -57 143 -203 214 -326 157z"/>
<path d="M12493 2710 c-12 -5 -26 -18 -32 -29 -7 -13 -11 -137 -11 -354 0
-410 -10 -382 137 -382 116 0 156 17 222 91 51 58 80 146 88 265 14 212 -60
362 -198 403 -57 17 -170 20 -206 6z"/>
<path d="M6575 1705 c-38 -30 -71 -59 -73 -64 -3 -10 88 -133 104 -138 5 -2
31 13 57 33 48 37 72 39 84 8 5 -13 -7 -29 -40 -58 -50 -43 -56 -56 -33 -75
11 -9 26 -2 72 33 103 77 102 73 49 144 -26 34 -50 64 -54 66 -4 3 -31 -12
-60 -32 -41 -29 -55 -34 -69 -26 -33 21 -25 48 23 84 32 24 45 40 43 55 -5 34
-30 27 -103 -30z"/>
<path d="M3263 1658 c-22 -29 -61 -82 -86 -116 -26 -35 -47 -68 -47 -73 0 -4
10 -13 21 -20 19 -10 26 -6 59 32 l37 43 37 -22 c45 -27 43 -27 57 -1 9 18 6
25 -22 48 -28 24 -30 30 -20 49 16 30 39 28 89 -9 44 -32 72 -33 72 -2 0 16
-107 105 -143 119 -10 4 -28 -12 -54 -48z"/>
<path d="M3516 1528 c-55 -88 -126 -219 -126 -231 0 -14 126 -94 157 -99 15
-3 54 54 124 181 26 47 31 65 23 78 -10 16 -138 93 -155 93 -5 0 -15 -10 -23
-22z m98 -90 c7 -12 -1 -34 -30 -84 -42 -73 -64 -86 -99 -60 -20 15 -20 15 9
71 44 86 63 106 88 96 12 -4 26 -15 32 -23z"/>
<path d="M6272 1498 c-8 -10 7 -42 62 -133 40 -66 80 -121 88 -123 17 -3 168
84 168 97 0 4 -6 15 -13 25 -12 17 -16 16 -66 -15 -41 -26 -56 -31 -69 -22 -9
5 -41 48 -70 94 -52 83 -78 103 -100 77z"/>
<path d="M6098 1413 c-52 -24 -78 -42 -78 -53 0 -28 109 -250 126 -257 25 -9
174 67 174 89 0 30 -28 32 -80 8 -27 -12 -56 -20 -65 -16 -25 9 -14 49 18 64
27 13 37 45 17 57 -6 3 -26 1 -45 -6 -30 -11 -37 -11 -51 3 -25 25 -9 52 47
78 39 19 49 28 47 44 -4 31 -25 29 -110 -11z"/>
<path d="M3750 1363 c-70 -156 -90 -203 -90 -215 0 -7 39 -30 86 -52 72 -31
89 -35 99 -24 12 13 115 244 115 259 0 11 -147 79 -170 79 -13 0 -26 -15 -40
-47z m119 -47 c9 -11 5 -31 -20 -91 -18 -42 -39 -79 -46 -82 -15 -6 -63 22
-63 37 0 5 14 41 31 80 28 62 35 70 59 70 15 0 33 -6 39 -14z"/>
<path d="M5833 1302 c-39 -15 -74 -30 -77 -33 -5 -5 42 -146 83 -251 13 -34
17 -34 114 -2 81 27 100 45 76 70 -13 12 -22 11 -68 -6 -41 -16 -56 -18 -67
-9 -24 20 -16 45 21 62 22 11 35 24 35 36 0 25 -17 30 -59 17 -28 -8 -35 -7
-47 8 -20 27 -3 50 53 71 52 20 64 31 56 52 -7 19 -39 15 -120 -15z"/>
<path d="M4002 1223 c-57 -166 -64 -195 -55 -204 5 -5 41 -18 80 -30 98 -30
111 -21 152 103 35 106 38 139 14 160 -16 13 -134 58 -154 58 -3 0 -20 -39
-37 -87z m122 1 c20 -8 20 -32 0 -102 -20 -68 -29 -82 -59 -82 -42 0 -50 24
-30 88 33 104 42 114 89 96z"/>
<path d="M5641 1241 c-10 -7 -12 -23 -6 -69 7 -60 6 -61 -19 -68 -38 -9 -53 0
-61 38 -12 62 -16 68 -40 68 -13 0 -26 -4 -29 -9 -4 -5 5 -54 18 -108 45 -186
44 -183 73 -183 25 0 26 0 19 59 -6 54 -5 61 14 71 35 19 52 8 69 -45 16 -49
33 -63 60 -46 11 7 11 19 -2 72 -9 35 -23 96 -33 134 -21 90 -32 105 -63 86z"/>
<path d="M4405 1188 c-9 -27 -45 -234 -45 -260 0 -21 6 -28 28 -32 142 -28
153 -29 166 -15 14 14 61 278 51 287 -6 6 -141 31 -173 31 -12 1 -25 -5 -27
-11z m119 -118 c0 -30 -3 -72 -7 -92 -7 -35 -10 -38 -43 -38 -44 0 -50 14 -35
93 19 99 19 99 54 95 32 -3 32 -3 31 -58z"/>
<path d="M5357 1173 c-3 -5 -8 -32 -12 -60 -4 -29 -11 -55 -16 -58 -5 -4 -21
20 -36 52 -23 48 -32 58 -53 58 -26 0 -28 -4 -46 -103 -7 -36 -27 -21 -48 36
-16 46 -22 52 -47 52 -17 0 -29 -5 -28 -12 0 -7 21 -74 48 -148 46 -131 48
-135 76 -135 30 0 37 12 50 88 8 50 24 43 48 -22 19 -49 22 -52 51 -49 l31 3
17 115 c9 63 17 132 17 153 1 33 -2 37 -23 37 -14 0 -27 -3 -29 -7z"/>
<path d="M4676 1078 c-3 -46 -7 -114 -9 -153 -2 -67 -1 -70 22 -73 30 -5 41
12 41 65 0 60 17 62 40 6 30 -72 35 -78 66 -78 27 0 29 3 35 52 4 29 8 97 10
150 4 97 4 98 -20 101 -30 5 -41 -12 -41 -65 0 -59 -22 -56 -45 5 -24 62 -32
72 -65 72 -28 0 -28 0 -34 -82z"/>
</g>
</svg>
